<svg width="162" height="148" viewBox="0 0 162 148" fill="none" xmlns="http://www.w3.org/2000/svg">
<rect width="81" height="74" fill="#00CCAA"/>
<rect x="81" width="81" height="74" fill="#E8F2F0"/>
<rect y="74" width="162" height="74" fill="#002D26"/>
<path d="M94.4148 11.2727V12.8636H89.3977V11.2727H94.4148ZM90.6364 9.18182H92.6932V17.375C92.6932 17.6515 92.7348 17.8636 92.8182 18.0114C92.9053 18.1553 93.0189 18.2538 93.1591 18.3068C93.2992 18.3598 93.4545 18.3864 93.625 18.3864C93.7538 18.3864 93.8712 18.3769 93.9773 18.358C94.0871 18.339 94.1705 18.322 94.2273 18.3068L94.5739 19.9148C94.464 19.9527 94.3068 19.9943 94.1023 20.0398C93.9015 20.0852 93.6553 20.1117 93.3636 20.1193C92.8485 20.1345 92.3845 20.0568 91.9716 19.8864C91.5587 19.7121 91.2311 19.4432 90.9886 19.0795C90.75 18.7159 90.6326 18.2614 90.6364 17.7159V9.18182ZM99.9048 20.1705C99.0298 20.1705 98.2741 19.9886 97.6378 19.625C97.0052 19.2576 96.5185 18.7386 96.1776 18.0682C95.8366 17.3939 95.6662 16.6004 95.6662 15.6875C95.6662 14.7898 95.8366 14.0019 96.1776 13.3239C96.5223 12.642 97.0033 12.1117 97.6207 11.733C98.2382 11.3504 98.9635 11.1591 99.7969 11.1591C100.335 11.1591 100.842 11.2462 101.32 11.4205C101.801 11.5909 102.225 11.8561 102.592 12.2159C102.964 12.5758 103.255 13.0341 103.467 13.5909C103.679 14.1439 103.786 14.803 103.786 15.5682V16.1989H96.6321V14.8125H101.814C101.81 14.4186 101.725 14.0682 101.558 13.7614C101.392 13.4508 101.159 13.2064 100.859 13.0284C100.564 12.8504 100.219 12.7614 99.8253 12.7614C99.4048 12.7614 99.0355 12.8636 98.7173 13.0682C98.3991 13.2689 98.151 13.5341 97.973 13.8636C97.7988 14.1894 97.7098 14.5473 97.706 14.9375V16.1477C97.706 16.6553 97.7988 17.0909 97.9844 17.4545C98.17 17.8144 98.4295 18.0909 98.7628 18.2841C99.0961 18.4735 99.4863 18.5682 99.9332 18.5682C100.232 18.5682 100.503 18.5265 100.746 18.4432C100.988 18.3561 101.198 18.2292 101.376 18.0625C101.554 17.8958 101.689 17.6894 101.78 17.4432L103.7 17.6591C103.579 18.1667 103.348 18.6098 103.007 18.9886C102.67 19.3636 102.238 19.6553 101.712 19.8636C101.185 20.0682 100.583 20.1705 99.9048 20.1705ZM107.02 11.2727L108.781 14.4943L110.571 11.2727H112.747L110.116 15.6364L112.793 20H110.628L108.781 16.858L106.952 20H104.77L107.429 15.6364L104.838 11.2727H107.02ZM118.696 11.2727V12.8636H113.679V11.2727H118.696ZM114.918 9.18182H116.974V17.375C116.974 17.6515 117.016 17.8636 117.099 18.0114C117.187 18.1553 117.3 18.2538 117.44 18.3068C117.58 18.3598 117.736 18.3864 117.906 18.3864C118.035 18.3864 118.152 18.3769 118.259 18.358C118.368 18.339 118.452 18.322 118.509 18.3068L118.855 19.9148C118.745 19.9527 118.588 19.9943 118.384 20.0398C118.183 20.0852 117.937 20.1117 117.645 20.1193C117.13 20.1345 116.666 20.0568 116.253 19.8864C115.84 19.7121 115.512 19.4432 115.27 19.0795C115.031 18.7159 114.914 18.2614 114.918 17.7159V9.18182ZM124.186 20.1705C123.311 20.1705 122.555 19.9886 121.919 19.625C121.286 19.2576 120.8 18.7386 120.459 18.0682C120.118 17.3939 119.947 16.6004 119.947 15.6875C119.947 14.7898 120.118 14.0019 120.459 13.3239C120.804 12.642 121.285 12.1117 121.902 11.733C122.519 11.3504 123.245 11.1591 124.078 11.1591C124.616 11.1591 125.124 11.2462 125.601 11.4205C126.082 11.5909 126.506 11.8561 126.874 12.2159C127.245 12.5758 127.536 13.0341 127.749 13.5909C127.961 14.1439 128.067 14.803 128.067 15.5682V16.1989H120.913V14.8125H126.095C126.091 14.4186 126.006 14.0682 125.839 13.7614C125.673 13.4508 125.44 13.2064 125.141 13.0284C124.845 12.8504 124.5 12.7614 124.107 12.7614C123.686 12.7614 123.317 12.8636 122.999 13.0682C122.68 13.2689 122.432 13.5341 122.254 13.8636C122.08 14.1894 121.991 14.5473 121.987 14.9375V16.1477C121.987 16.6553 122.08 17.0909 122.266 17.4545C122.451 17.8144 122.711 18.0909 123.044 18.2841C123.377 18.4735 123.768 18.5682 124.214 18.5682C124.514 18.5682 124.785 18.5265 125.027 18.4432C125.269 18.3561 125.48 18.2292 125.658 18.0625C125.836 17.8958 125.97 17.6894 126.061 17.4432L127.982 17.6591C127.86 18.1667 127.629 18.6098 127.288 18.9886C126.951 19.3636 126.519 19.6553 125.993 19.8636C125.466 20.0682 124.864 20.1705 124.186 20.1705ZM93.4226 55L94.9737 45.5455H96.2663L94.7152 55H93.4226ZM89.1616 52.5625L89.3786 51.2699H96.6541L96.4371 52.5625H89.1616ZM90.0987 55L91.6499 45.5455H92.9425L91.3913 55H90.0987ZM89.7109 49.2756L89.9233 47.983H97.1989L96.9865 49.2756H89.7109ZM98.2987 55V45.5455H104.356V46.9812H100.011V49.5479H103.94V50.9837H100.011V55H98.2987ZM105.949 55H104.121L107.45 45.5455H109.564L112.897 55H111.069L108.544 47.4844H108.47L105.949 55ZM106.009 51.293H110.995V52.6687H106.009V51.293ZM114.142 55V45.5455H120.199V46.9812H115.855V49.5479H119.784V50.9837H115.855V55H114.142ZM121.76 55V45.5455H127.816V46.9812H123.472V49.5479H127.401V50.9837H123.472V55H121.76ZM129.377 55V45.5455H135.434V46.9812H131.09V49.5479H135.018V50.9837H131.09V55H129.377ZM136.994 55V45.5455H143.143V46.9812H138.707V49.5479H142.825V50.9837H138.707V53.5643H143.18V55H136.994Z" fill="#002D26"/>
<path d="M13.4148 11.2727V12.8636H8.39773V11.2727H13.4148ZM9.63636 9.18182H11.6932V17.375C11.6932 17.6515 11.7348 17.8636 11.8182 18.0114C11.9053 18.1553 12.0189 18.2538 12.1591 18.3068C12.2992 18.3598 12.4545 18.3864 12.625 18.3864C12.7538 18.3864 12.8712 18.3769 12.9773 18.358C13.0871 18.339 13.1705 18.322 13.2273 18.3068L13.5739 19.9148C13.464 19.9527 13.3068 19.9943 13.1023 20.0398C12.9015 20.0852 12.6553 20.1117 12.3636 20.1193C11.8485 20.1345 11.3845 20.0568 10.9716 19.8864C10.5587 19.7121 10.2311 19.4432 9.98864 19.0795C9.75 18.7159 9.63258 18.2614 9.63636 17.7159V9.18182ZM18.9048 20.1705C18.0298 20.1705 17.2741 19.9886 16.6378 19.625C16.0052 19.2576 15.5185 18.7386 15.1776 18.0682C14.8366 17.3939 14.6662 16.6004 14.6662 15.6875C14.6662 14.7898 14.8366 14.0019 15.1776 13.3239C15.5223 12.642 16.0033 12.1117 16.6207 11.733C17.2382 11.3504 17.9635 11.1591 18.7969 11.1591C19.3348 11.1591 19.8423 11.2462 20.3196 11.4205C20.8007 11.5909 21.2249 11.8561 21.5923 12.2159C21.9635 12.5758 22.2552 13.0341 22.4673 13.5909C22.6795 14.1439 22.7855 14.803 22.7855 15.5682V16.1989H15.6321V14.8125H20.8139C20.8101 14.4186 20.7249 14.0682 20.5582 13.7614C20.3916 13.4508 20.1586 13.2064 19.8594 13.0284C19.5639 12.8504 19.2192 12.7614 18.8253 12.7614C18.4048 12.7614 18.0355 12.8636 17.7173 13.0682C17.3991 13.2689 17.151 13.5341 16.973 13.8636C16.7988 14.1894 16.7098 14.5473 16.706 14.9375V16.1477C16.706 16.6553 16.7988 17.0909 16.9844 17.4545C17.17 17.8144 17.4295 18.0909 17.7628 18.2841C18.0961 18.4735 18.4863 18.5682 18.9332 18.5682C19.2325 18.5682 19.5033 18.5265 19.7457 18.4432C19.9882 18.3561 20.1984 18.2292 20.3764 18.0625C20.5545 17.8958 20.6889 17.6894 20.7798 17.4432L22.7003 17.6591C22.5791 18.1667 22.348 18.6098 22.0071 18.9886C21.67 19.3636 21.2382 19.6553 20.7116 19.8636C20.1851 20.0682 19.5829 20.1705 18.9048 20.1705ZM26.0199 11.2727L27.7812 14.4943L29.571 11.2727H31.7472L29.1165 15.6364L31.7926 20H29.6278L27.7812 16.858L25.9517 20H23.7699L26.429 15.6364L23.8381 11.2727H26.0199ZM37.696 11.2727V12.8636H32.679V11.2727H37.696ZM33.9176 9.18182H35.9744V17.375C35.9744 17.6515 36.0161 17.8636 36.0994 18.0114C36.1866 18.1553 36.3002 18.2538 36.4403 18.3068C36.5805 18.3598 36.7358 18.3864 36.9062 18.3864C37.035 18.3864 37.1525 18.3769 37.2585 18.358C37.3684 18.339 37.4517 18.322 37.5085 18.3068L37.8551 19.9148C37.7453 19.9527 37.5881 19.9943 37.3835 20.0398C37.1828 20.0852 36.9366 20.1117 36.6449 20.1193C36.1297 20.1345 35.6657 20.0568 35.2528 19.8864C34.84 19.7121 34.5123 19.4432 34.2699 19.0795C34.0313 18.7159 33.9138 18.2614 33.9176 17.7159V9.18182ZM43.1861 20.1705C42.3111 20.1705 41.5554 19.9886 40.919 19.625C40.2865 19.2576 39.7997 18.7386 39.4588 18.0682C39.1179 17.3939 38.9474 16.6004 38.9474 15.6875C38.9474 14.7898 39.1179 14.0019 39.4588 13.3239C39.8035 12.642 40.2846 12.1117 40.902 11.733C41.5194 11.3504 42.2448 11.1591 43.0781 11.1591C43.616 11.1591 44.1236 11.2462 44.6009 11.4205C45.0819 11.5909 45.5062 11.8561 45.8736 12.2159C46.2448 12.5758 46.5365 13.0341 46.7486 13.5909C46.9607 14.1439 47.0668 14.803 47.0668 15.5682V16.1989H39.9134V14.8125H45.0952C45.0914 14.4186 45.0062 14.0682 44.8395 13.7614C44.6728 13.4508 44.4399 13.2064 44.1406 13.0284C43.8452 12.8504 43.5005 12.7614 43.1065 12.7614C42.6861 12.7614 42.3168 12.8636 41.9986 13.0682C41.6804 13.2689 41.4323 13.5341 41.2543 13.8636C41.08 14.1894 40.991 14.5473 40.9872 14.9375V16.1477C40.9872 16.6553 41.08 17.0909 41.2656 17.4545C41.4512 17.8144 41.7107 18.0909 42.044 18.2841C42.3774 18.4735 42.7675 18.5682 43.2145 18.5682C43.5137 18.5682 43.7846 18.5265 44.027 18.4432C44.2694 18.3561 44.4796 18.2292 44.6577 18.0625C44.8357 17.8958 44.9702 17.6894 45.0611 17.4432L46.9815 17.6591C46.8603 18.1667 46.6293 18.6098 46.2884 18.9886C45.9512 19.3636 45.5194 19.6553 44.9929 19.8636C44.4664 20.0682 43.8641 20.1705 43.1861 20.1705ZM12.0824 54L13.5142 45.2727H14.7074L13.2756 54H12.0824ZM8.14915 51.75L8.34943 50.5568H15.0653L14.8651 51.75H8.14915ZM9.0142 54L10.446 45.2727H11.6392L10.2074 54H9.0142ZM8.65625 48.7159L8.85227 47.5227H15.5682L15.3722 48.7159H8.65625ZM19.7241 54.1662C19.0224 54.1662 18.4201 53.9886 17.9173 53.6335C17.4173 53.2756 17.0323 52.7599 16.7624 52.0866C16.4954 51.4105 16.3619 50.5966 16.3619 49.6449C16.3647 48.6932 16.4996 47.8835 16.7667 47.2159C17.0366 46.5455 17.4215 46.0341 17.9215 45.6818C18.4244 45.3295 19.0252 45.1534 19.7241 45.1534C20.4229 45.1534 21.0238 45.3295 21.5266 45.6818C22.0295 46.0341 22.4144 46.5455 22.6815 47.2159C22.9513 47.8864 23.0863 48.696 23.0863 49.6449C23.0863 50.5994 22.9513 51.4148 22.6815 52.0909C22.4144 52.7642 22.0295 53.2784 21.5266 53.6335C21.0266 53.9886 20.4258 54.1662 19.7241 54.1662ZM19.7241 52.8324C20.2695 52.8324 20.6999 52.5639 21.0153 52.027C21.3335 51.4872 21.4925 50.6932 21.4925 49.6449C21.4925 48.9517 21.4201 48.3693 21.2752 47.8977C21.1303 47.4261 20.9258 47.071 20.6616 46.8324C20.3974 46.5909 20.0849 46.4702 19.7241 46.4702C19.1815 46.4702 18.7525 46.7401 18.4371 47.2798C18.1218 47.8168 17.9627 48.6051 17.9599 49.6449C17.957 50.3409 18.0266 50.9261 18.1687 51.4006C18.3136 51.875 18.5181 52.233 18.7823 52.4744C19.0465 52.7131 19.3604 52.8324 19.7241 52.8324ZM27.728 54.1662C27.0263 54.1662 26.424 53.9886 25.9212 53.6335C25.4212 53.2756 25.0362 52.7599 24.7663 52.0866C24.4993 51.4105 24.3658 50.5966 24.3658 49.6449C24.3686 48.6932 24.5036 47.8835 24.7706 47.2159C25.0405 46.5455 25.4254 46.0341 25.9254 45.6818C26.4283 45.3295 27.0291 45.1534 27.728 45.1534C28.4268 45.1534 29.0277 45.3295 29.5305 45.6818C30.0334 46.0341 30.4183 46.5455 30.6854 47.2159C30.9553 47.8864 31.0902 48.696 31.0902 49.6449C31.0902 50.5994 30.9553 51.4148 30.6854 52.0909C30.4183 52.7642 30.0334 53.2784 29.5305 53.6335C29.0305 53.9886 28.4297 54.1662 27.728 54.1662ZM27.728 52.8324C28.2734 52.8324 28.7038 52.5639 29.0192 52.027C29.3374 51.4872 29.4964 50.6932 29.4964 49.6449C29.4964 48.9517 29.424 48.3693 29.2791 47.8977C29.1342 47.4261 28.9297 47.071 28.6655 46.8324C28.4013 46.5909 28.0888 46.4702 27.728 46.4702C27.1854 46.4702 26.7564 46.7401 26.4411 47.2798C26.1257 47.8168 25.9666 48.6051 25.9638 49.6449C25.9609 50.3409 26.0305 50.9261 26.1726 51.4006C26.3175 51.875 26.522 52.233 26.7862 52.4744C27.0504 52.7131 27.3643 52.8324 27.728 52.8324ZM40.0614 48.2173H38.4677C38.4222 47.956 38.3384 47.7244 38.2163 47.5227C38.0941 47.3182 37.9421 47.1449 37.7603 47.0028C37.5785 46.8608 37.3711 46.7543 37.1381 46.6832C36.908 46.6094 36.6594 46.5724 36.3924 46.5724C35.918 46.5724 35.4975 46.6918 35.131 46.9304C34.7646 47.1662 34.4776 47.5128 34.2702 47.9702C34.0629 48.4247 33.9592 48.9801 33.9592 49.6364C33.9592 50.304 34.0629 50.8665 34.2702 51.3239C34.4805 51.7784 34.7674 52.1222 35.131 52.3551C35.4975 52.5852 35.9165 52.7003 36.3881 52.7003C36.6495 52.7003 36.8938 52.6662 37.1211 52.598C37.3512 52.527 37.5572 52.4233 37.739 52.2869C37.9237 52.1506 38.0785 51.983 38.2035 51.7841C38.3313 51.5852 38.4194 51.358 38.4677 51.1023L40.0614 51.1108C40.0018 51.5256 39.8725 51.9148 39.6737 52.2784C39.4776 52.642 39.2205 52.9631 38.9023 53.2415C38.5842 53.517 38.212 53.733 37.7859 53.8892C37.3597 54.0426 36.8867 54.1193 36.3668 54.1193C35.5998 54.1193 34.9151 53.9418 34.3129 53.5866C33.7106 53.2315 33.2362 52.7188 32.8896 52.0483C32.543 51.3778 32.3697 50.5739 32.3697 49.6364C32.3697 48.696 32.5444 47.892 32.8938 47.2244C33.2433 46.554 33.7191 46.0412 34.3214 45.6861C34.9237 45.331 35.6055 45.1534 36.3668 45.1534C36.8526 45.1534 37.3043 45.2216 37.7219 45.358C38.1396 45.4943 38.5117 45.6946 38.8384 45.9588C39.1651 46.2202 39.4336 46.5412 39.6438 46.9219C39.8569 47.2997 39.9961 47.7315 40.0614 48.2173ZM48.9794 48.2173H47.3857C47.3402 47.956 47.2564 47.7244 47.1342 47.5227C47.0121 47.3182 46.8601 47.1449 46.6783 47.0028C46.4964 46.8608 46.2891 46.7543 46.0561 46.6832C45.826 46.6094 45.5774 46.5724 45.3104 46.5724C44.8359 46.5724 44.4155 46.6918 44.049 46.9304C43.6825 47.1662 43.3956 47.5128 43.1882 47.9702C42.9808 48.4247 42.8771 48.9801 42.8771 49.6364C42.8771 50.304 42.9808 50.8665 43.1882 51.3239C43.3984 51.7784 43.6854 52.1222 44.049 52.3551C44.4155 52.5852 44.8345 52.7003 45.3061 52.7003C45.5675 52.7003 45.8118 52.6662 46.0391 52.598C46.2692 52.527 46.4751 52.4233 46.657 52.2869C46.8416 52.1506 46.9964 51.983 47.1214 51.7841C47.2493 51.5852 47.3374 51.358 47.3857 51.1023L48.9794 51.1108C48.9197 51.5256 48.7905 51.9148 48.5916 52.2784C48.3956 52.642 48.1385 52.9631 47.8203 53.2415C47.5021 53.517 47.13 53.733 46.7038 53.8892C46.2777 54.0426 45.8047 54.1193 45.2848 54.1193C44.5178 54.1193 43.8331 53.9418 43.2308 53.5866C42.6286 53.2315 42.1541 52.7188 41.8075 52.0483C41.4609 51.3778 41.2876 50.5739 41.2876 49.6364C41.2876 48.696 41.4624 47.892 41.8118 47.2244C42.1612 46.554 42.6371 46.0412 43.2393 45.6861C43.8416 45.331 44.5234 45.1534 45.2848 45.1534C45.7706 45.1534 46.2223 45.2216 46.6399 45.358C47.0575 45.4943 47.4297 45.6946 47.7564 45.9588C48.0831 46.2202 48.3516 46.5412 48.5618 46.9219C48.7749 47.2997 48.9141 47.7315 48.9794 48.2173ZM51.4425 54H49.755L52.8274 45.2727H54.7791L57.8558 54H56.1683L53.8374 47.0625H53.7692L51.4425 54ZM51.4979 50.5781H56.1001V51.848H51.4979V50.5781ZM60.1261 54H58.4386L61.511 45.2727H63.4627L66.5394 54H64.8519L62.521 47.0625H62.4528L60.1261 54ZM60.1815 50.5781H64.7837V51.848H60.1815V50.5781Z" fill="#FAFFFE"/>
<path d="M13.4148 91.2727V92.8636H8.39773V91.2727H13.4148ZM9.63636 89.1818H11.6932V97.375C11.6932 97.6515 11.7348 97.8636 11.8182 98.0114C11.9053 98.1553 12.0189 98.2538 12.1591 98.3068C12.2992 98.3598 12.4545 98.3864 12.625 98.3864C12.7538 98.3864 12.8712 98.3769 12.9773 98.358C13.0871 98.339 13.1705 98.322 13.2273 98.3068L13.5739 99.9148C13.464 99.9527 13.3068 99.9943 13.1023 100.04C12.9015 100.085 12.6553 100.112 12.3636 100.119C11.8485 100.134 11.3845 100.057 10.9716 99.8864C10.5587 99.7121 10.2311 99.4432 9.98864 99.0795C9.75 98.7159 9.63258 98.2614 9.63636 97.7159V89.1818ZM18.9048 100.17C18.0298 100.17 17.2741 99.9886 16.6378 99.625C16.0052 99.2576 15.5185 98.7386 15.1776 98.0682C14.8366 97.3939 14.6662 96.6004 14.6662 95.6875C14.6662 94.7898 14.8366 94.0019 15.1776 93.3239C15.5223 92.642 16.0033 92.1117 16.6207 91.733C17.2382 91.3504 17.9635 91.1591 18.7969 91.1591C19.3348 91.1591 19.8423 91.2462 20.3196 91.4205C20.8007 91.5909 21.2249 91.8561 21.5923 92.2159C21.9635 92.5758 22.2552 93.0341 22.4673 93.5909C22.6795 94.1439 22.7855 94.803 22.7855 95.5682V96.1989H15.6321V94.8125H20.8139C20.8101 94.4186 20.7249 94.0682 20.5582 93.7614C20.3916 93.4508 20.1586 93.2064 19.8594 93.0284C19.5639 92.8504 19.2192 92.7614 18.8253 92.7614C18.4048 92.7614 18.0355 92.8636 17.7173 93.0682C17.3991 93.2689 17.151 93.5341 16.973 93.8636C16.7988 94.1894 16.7098 94.5473 16.706 94.9375V96.1477C16.706 96.6553 16.7988 97.0909 16.9844 97.4545C17.17 97.8144 17.4295 98.0909 17.7628 98.2841C18.0961 98.4735 18.4863 98.5682 18.9332 98.5682C19.2325 98.5682 19.5033 98.5265 19.7457 98.4432C19.9882 98.3561 20.1984 98.2292 20.3764 98.0625C20.5545 97.8958 20.6889 97.6894 20.7798 97.4432L22.7003 97.6591C22.5791 98.1667 22.348 98.6098 22.0071 98.9886C21.67 99.3636 21.2382 99.6553 20.7116 99.8636C20.1851 100.068 19.5829 100.17 18.9048 100.17ZM26.0199 91.2727L27.7812 94.4943L29.571 91.2727H31.7472L29.1165 95.6364L31.7926 100H29.6278L27.7812 96.858L25.9517 100H23.7699L26.429 95.6364L23.8381 91.2727H26.0199ZM37.696 91.2727V92.8636H32.679V91.2727H37.696ZM33.9176 89.1818H35.9744V97.375C35.9744 97.6515 36.0161 97.8636 36.0994 98.0114C36.1866 98.1553 36.3002 98.2538 36.4403 98.3068C36.5805 98.3598 36.7358 98.3864 36.9062 98.3864C37.035 98.3864 37.1525 98.3769 37.2585 98.358C37.3684 98.339 37.4517 98.322 37.5085 98.3068L37.8551 99.9148C37.7453 99.9527 37.5881 99.9943 37.3835 100.04C37.1828 100.085 36.9366 100.112 36.6449 100.119C36.1297 100.134 35.6657 100.057 35.2528 99.8864C34.84 99.7121 34.5123 99.4432 34.2699 99.0795C34.0313 98.7159 33.9138 98.2614 33.9176 97.7159V89.1818ZM43.1861 100.17C42.3111 100.17 41.5554 99.9886 40.919 99.625C40.2865 99.2576 39.7997 98.7386 39.4588 98.0682C39.1179 97.3939 38.9474 96.6004 38.9474 95.6875C38.9474 94.7898 39.1179 94.0019 39.4588 93.3239C39.8035 92.642 40.2846 92.1117 40.902 91.733C41.5194 91.3504 42.2448 91.1591 43.0781 91.1591C43.616 91.1591 44.1236 91.2462 44.6009 91.4205C45.0819 91.5909 45.5062 91.8561 45.8736 92.2159C46.2448 92.5758 46.5365 93.0341 46.7486 93.5909C46.9607 94.1439 47.0668 94.803 47.0668 95.5682V96.1989H39.9134V94.8125H45.0952C45.0914 94.4186 45.0062 94.0682 44.8395 93.7614C44.6728 93.4508 44.4399 93.2064 44.1406 93.0284C43.8452 92.8504 43.5005 92.7614 43.1065 92.7614C42.6861 92.7614 42.3168 92.8636 41.9986 93.0682C41.6804 93.2689 41.4323 93.5341 41.2543 93.8636C41.08 94.1894 40.991 94.5473 40.9872 94.9375V96.1477C40.9872 96.6553 41.08 97.0909 41.2656 97.4545C41.4512 97.8144 41.7107 98.0909 42.044 98.2841C42.3774 98.4735 42.7675 98.5682 43.2145 98.5682C43.5137 98.5682 43.7846 98.5265 44.027 98.4432C44.2694 98.3561 44.4796 98.2292 44.6577 98.0625C44.8357 97.8958 44.9702 97.6894 45.0611 97.4432L46.9815 97.6591C46.8603 98.1667 46.6293 98.6098 46.2884 98.9886C45.9512 99.3636 45.5194 99.6553 44.9929 99.8636C44.4664 100.068 43.8641 100.17 43.1861 100.17ZM13.4432 138L15.3523 126.364H16.9432L15.0341 138H13.4432ZM8.19886 135L8.46591 133.409H17.4205L17.1534 135H8.19886ZM9.35227 138L11.2614 126.364H12.8523L10.9432 138H9.35227ZM8.875 130.955L9.13636 129.364H18.0909L17.8295 130.955H8.875ZM23.6321 138.222C22.6965 138.222 21.8935 137.985 21.223 137.511C20.5563 137.034 20.0431 136.347 19.6832 135.449C19.3272 134.547 19.1491 133.462 19.1491 132.193C19.1529 130.924 19.3329 129.845 19.6889 128.955C20.0488 128.061 20.562 127.379 21.2287 126.909C21.8991 126.439 22.7003 126.205 23.6321 126.205C24.5639 126.205 25.3651 126.439 26.0355 126.909C26.706 127.379 27.2192 128.061 27.5753 128.955C27.9351 129.848 28.1151 130.928 28.1151 132.193C28.1151 133.466 27.9351 134.553 27.5753 135.455C27.2192 136.352 26.706 137.038 26.0355 137.511C25.3688 137.985 24.5677 138.222 23.6321 138.222ZM23.6321 136.443C24.3594 136.443 24.9332 136.085 25.3537 135.369C25.7779 134.65 25.9901 133.591 25.9901 132.193C25.9901 131.269 25.8935 130.492 25.7003 129.864C25.5071 129.235 25.2344 128.761 24.8821 128.443C24.5298 128.121 24.1132 127.96 23.6321 127.96C22.9086 127.96 22.3366 128.32 21.9162 129.04C21.4957 129.756 21.2836 130.807 21.2798 132.193C21.276 133.121 21.3688 133.902 21.5582 134.534C21.7514 135.167 22.0241 135.644 22.3764 135.966C22.7287 136.284 23.1473 136.443 23.6321 136.443ZM34.304 138.222C33.3684 138.222 32.5653 137.985 31.8949 137.511C31.2282 137.034 30.715 136.347 30.3551 135.449C29.9991 134.547 29.821 133.462 29.821 132.193C29.8248 130.924 30.0047 129.845 30.3608 128.955C30.7206 128.061 31.2339 127.379 31.9006 126.909C32.571 126.439 33.3722 126.205 34.304 126.205C35.2358 126.205 36.0369 126.439 36.7074 126.909C37.3778 127.379 37.8911 128.061 38.2472 128.955C38.607 129.848 38.7869 130.928 38.7869 132.193C38.7869 133.466 38.607 134.553 38.2472 135.455C37.8911 136.352 37.3778 137.038 36.7074 137.511C36.0407 137.985 35.2396 138.222 34.304 138.222ZM34.304 136.443C35.0313 136.443 35.6051 136.085 36.0256 135.369C36.4498 134.65 36.6619 133.591 36.6619 132.193C36.6619 131.269 36.5653 130.492 36.3722 129.864C36.179 129.235 35.9063 128.761 35.554 128.443C35.2017 128.121 34.785 127.96 34.304 127.96C33.5805 127.96 33.0085 128.32 32.5881 129.04C32.1676 129.756 31.9555 130.807 31.9517 132.193C31.9479 133.121 32.0407 133.902 32.2301 134.534C32.4233 135.167 32.696 135.644 33.0483 135.966C33.4006 136.284 33.8191 136.443 34.304 136.443ZM40.6747 138V136.477L44.7145 132.517C45.1009 132.127 45.4228 131.78 45.6804 131.477C45.938 131.174 46.1312 130.881 46.2599 130.597C46.3887 130.312 46.4531 130.009 46.4531 129.688C46.4531 129.32 46.3698 129.006 46.2031 128.744C46.0365 128.479 45.8073 128.275 45.5156 128.131C45.224 127.987 44.8925 127.915 44.5213 127.915C44.1387 127.915 43.8035 127.994 43.5156 128.153C43.2277 128.309 43.0043 128.53 42.8452 128.818C42.6899 129.106 42.6122 129.449 42.6122 129.847H40.6065C40.6065 129.108 40.7751 128.466 41.1122 127.92C41.4493 127.375 41.9134 126.953 42.5043 126.653C43.099 126.354 43.7808 126.205 44.5497 126.205C45.33 126.205 46.0156 126.35 46.6065 126.642C47.1974 126.934 47.6558 127.333 47.9815 127.841C48.3111 128.348 48.4759 128.928 48.4759 129.58C48.4759 130.015 48.3925 130.443 48.2259 130.864C48.0592 131.284 47.7656 131.75 47.3452 132.261C46.9285 132.773 46.3433 133.392 45.5895 134.119L43.5838 136.159V136.239H48.652V138H40.6747ZM54.669 138H50.7259V126.364H54.7486C55.9039 126.364 56.8963 126.597 57.7259 127.062C58.5592 127.525 59.1993 128.189 59.6463 129.057C60.0933 129.924 60.3168 130.962 60.3168 132.17C60.3168 133.383 60.0914 134.424 59.6406 135.295C59.1937 136.167 58.5478 136.835 57.7031 137.301C56.8622 137.767 55.8509 138 54.669 138ZM52.8338 136.176H54.5668C55.3774 136.176 56.0535 136.028 56.5952 135.733C57.1368 135.434 57.544 134.989 57.8168 134.398C58.0895 133.803 58.2259 133.061 58.2259 132.17C58.2259 131.28 58.0895 130.542 57.8168 129.955C57.544 129.364 57.1406 128.922 56.6065 128.631C56.0762 128.335 55.4171 128.188 54.6293 128.188H52.8338V136.176ZM62.206 138V136.477L66.2457 132.517C66.6321 132.127 66.9541 131.78 67.2116 131.477C67.4692 131.174 67.6624 130.881 67.7912 130.597C67.92 130.312 67.9844 130.009 67.9844 129.688C67.9844 129.32 67.901 129.006 67.7344 128.744C67.5677 128.479 67.3385 128.275 67.0469 128.131C66.7552 127.987 66.4238 127.915 66.0526 127.915C65.67 127.915 65.3348 127.994 65.0469 128.153C64.759 128.309 64.5355 128.53 64.3764 128.818C64.2211 129.106 64.1435 129.449 64.1435 129.847H62.1378C62.1378 129.108 62.3063 128.466 62.6435 127.92C62.9806 127.375 63.4446 126.953 64.0355 126.653C64.6302 126.354 65.312 126.205 66.081 126.205C66.8613 126.205 67.5469 126.35 68.1378 126.642C68.7287 126.934 69.187 127.333 69.5128 127.841C69.8423 128.348 70.0071 128.928 70.0071 129.58C70.0071 130.015 69.9238 130.443 69.7571 130.864C69.5904 131.284 69.2969 131.75 68.8764 132.261C68.4598 132.773 67.8745 133.392 67.1207 134.119L65.1151 136.159V136.239H70.1832V138H62.206ZM76.4048 138.159C75.848 138.155 75.3045 138.059 74.7741 137.869C74.2438 137.676 73.7666 137.364 73.3423 136.932C72.9181 136.496 72.581 135.919 72.331 135.199C72.081 134.475 71.9579 133.58 71.9616 132.511C71.9616 131.515 72.0677 130.627 72.2798 129.847C72.492 129.066 72.7969 128.407 73.1946 127.869C73.5923 127.328 74.0715 126.915 74.6321 126.631C75.1965 126.347 75.8272 126.205 76.5241 126.205C77.2552 126.205 77.9029 126.348 78.4673 126.636C79.0355 126.924 79.4938 127.318 79.8423 127.818C80.1908 128.314 80.4067 128.875 80.4901 129.5H78.4162C78.3101 129.053 78.0923 128.697 77.7628 128.432C77.437 128.163 77.0241 128.028 76.5241 128.028C75.7173 128.028 75.0961 128.379 74.6605 129.08C74.2287 129.78 74.0109 130.742 74.0071 131.966H74.0866C74.2723 131.633 74.5128 131.347 74.8082 131.108C75.1037 130.869 75.437 130.686 75.8082 130.557C76.1832 130.424 76.5791 130.358 76.9957 130.358C77.6776 130.358 78.2893 130.521 78.831 130.847C79.3764 131.172 79.8082 131.621 80.1264 132.193C80.4446 132.761 80.6018 133.413 80.598 134.148C80.6018 134.913 80.4276 135.6 80.0753 136.21C79.723 136.816 79.2325 137.294 78.6037 137.642C77.9749 137.991 77.242 138.163 76.4048 138.159ZM76.3935 136.455C76.8063 136.455 77.1757 136.354 77.5014 136.153C77.8272 135.953 78.0848 135.682 78.2741 135.341C78.4635 135 78.5563 134.617 78.5526 134.193C78.5563 133.777 78.4654 133.4 78.2798 133.062C78.098 132.725 77.8461 132.458 77.5241 132.261C77.2022 132.064 76.8348 131.966 76.4219 131.966C76.1151 131.966 75.8291 132.025 75.5639 132.142C75.2988 132.259 75.0677 132.422 74.8707 132.631C74.6738 132.835 74.5185 133.074 74.4048 133.347C74.295 133.616 74.2382 133.903 74.2344 134.21C74.2382 134.616 74.3329 134.989 74.5185 135.33C74.7041 135.67 74.9598 135.943 75.2855 136.148C75.6113 136.352 75.9806 136.455 76.3935 136.455Z" fill="#FAFFFE"/>
</svg>
